<svg xmlns="http://www.w3.org/2000/svg" width="720" height="540" viewBox="0 0 720 540"><rect width="720" height="540" fill="#6e7a97"/><rect x="60" y="65" width="600" height="410" rx="20" fill="#141923"/><text x="85" y="109" fill="#e7edff" font-family="Arial" font-size="20">◉ orbit</text><text x="85" y="177" fill="#717d9b" font-family="Arial" font-size="9">WORKSPACE</text><g fill="#a6b0c7" font-family="Arial" font-size="10"><text x="85" y="213">Overview</text><text x="85" y="248">Projects</text><text x="85" y="283">Insights</text><text x="85" y="318">Team</text></g><text x="232" y="111" fill="#939fbb" font-family="Arial" font-size="9">OVERVIEW / YOUR WEEK AT A GLANCE</text><text x="232" y="160" fill="#e7edff" font-family="Arial" font-size="26">Good things are taking shape.</text><rect x="232" y="190" width="178" height="95" rx="12" fill="#262e45"/><rect x="428" y="190" width="197" height="95" rx="12" fill="#212a3e"/><text x="252" y="223" fill="#8c9cc1" font-family="Arial" font-size="10">ACTIVE PROJECTS</text><text x="252" y="261" fill="#d5ddfa" font-family="Arial" font-size="28">24 <tspan fill="#8db7aa" font-size="12">+12%</tspan></text><text x="450" y="223" fill="#8c9cc1" font-family="Arial" font-size="10">TIME WELL SPENT</text><text x="450" y="261" fill="#d5ddfa" font-family="Arial" font-size="28">98.4<tspan font-size="14">h</tspan></text><rect x="232" y="305" width="393" height="135" rx="12" fill="#1e2535"/><path d="M250 411L285 386L320 397L360 353L400 373L445 347L480 366L520 328L556 343L608 315" fill="none" stroke="#a6b7ec" stroke-width="3"/><g stroke="#344057"><line x1="250" y1="420" x2="608" y2="420"/><line x1="250" y1="380" x2="608" y2="380"/><line x1="250" y1="340" x2="608" y2="340"/></g><text x="232" y="460" fill="#646f8a" font-family="Arial" font-size="8">CONCEPT INTERFACE / 2027</text></svg>
